#!OML:ASF E:\Mandelcareful walks\Project 1\Capture day 1\Session 1\Subject1.ASF
:FULLY-SPECIFIED
:DEGREES
389
root 45.5485 15.6073 5.74418 184.003 17.2963 174.874
lowerback 29.3564 1.6214 -1.92588
upperback 8.67099 3.33644 -2.28672
thorax -6.31607 2.43725 -2.64153
lowerneck -17.2881 16.9898 9.83951
upperneck 8.98629 26.1844 -24.1289
head 10.5165 11.2313 -5.17776
rclavicle -1.15295e-014 1.19271e-015
rhumerus -29.7973 1.60001 -74.0241
rradius 60.8523
rwrist -19.5065
rhand -13.6445 -19.5134
rfingers 7.12502
rthumb 12.4719 -49.1212
lclavicle -1.15295e-014 1.19271e-015
lhumerus -29.375 -9.04628 73.4663
lradius 54.1597
lwrist 24.2387
lhand -30.892 -16.3311
lfingers 7.12502
lthumb -4.17881 13.6077
rfemur -25.4494 -23.3048 14.7534
rtibia 56.0551
rfoot -29.6822 -12.537
rtoes -1.71974
lfemur -44.5011 26.624 -23.9799
ltibia 57.3503
lfoot -14.5992 16.4332
ltoes 11.3349
390
root 45.545 15.6202 5.66759 184.504 15.8748 175.451
lowerback 29.247 1.60791 -1.43225
upperback 8.48708 3.43089 -2.37806
thorax -6.44234 2.47351 -3.06105
lowerneck -17.3492 17.0026 9.87107
upperneck 9.03613 26.1591 -23.937
head 10.5069 11.2207 -5.12309
rclavicle -7.63333e-014 4.57205e-014
rhumerus -29.5769 1.82878 -74.7847
rradius 61.3363
rwrist -19.5492
rhand -13.4654 -19.3248
rfingers 7.12502
rthumb 12.6446 -48.922
lclavicle -7.63333e-014 4.57205e-014
lhumerus -29.914 -9.22501 73.4327
lradius 54.2065
lwrist 24.0284
lhand -30.9136 -16.6597
lfingers 7.12502
lthumb -4.19972 13.2787
rfemur -25.0801 -23.682 15.2002
rtibia 55.7717
rfoot -29.782 -13.1881
rtoes -2.11539
lfemur -44.8128 26.1698 -24.1262
ltibia 57.1247
lfoot -15.4629 16.8361
ltoes 11.0211
391
root 45.5377 15.6144 5.57855 184.945 14.3938 175.966
lowerback 28.9271 1.63625 -1.14615
upperback 8.44473 3.56092 -2.35915
thorax -6.32207 2.53788 -3.22857
lowerneck -17.4548 16.9869 9.92322
upperneck 8.98219 26.1528 -24.0036
head 10.5252 11.2148 -5.14471
rclavicle 1.78906e-015 -1.15295e-014
rhumerus -29.2212 2.39676 -75.2897
rradius 61.8611
rwrist -19.8955
rhand -13.7436 -19.4532
rfingers 7.12502
rthumb 12.3763 -49.0668
lclavicle 1.78906e-015 -1.15295e-014
lhumerus -30.0329 -9.28977 73.5765
lradius 53.9932
lwrist 23.827
lhand -30.7801 -17.1883
lfingers 7.12502
lthumb -4.07084 12.7526
rfemur -24.6421 -24.1849 15.5732
rtibia 55.5688
rfoot -29.9036 -13.9738
rtoes -3.46716
lfemur -45.0995 25.8627 -24.3611
ltibia 56.8592
lfoot -16.3442 17.217
ltoes 11.3243
392
root 45.5295 15.6217 5.4864 185.222 12.8328 176.287
lowerback 28.5139 1.83111 -1.18873
upperback 8.58137 3.87314 -2.20983
thorax -5.97267 2.7097 -3.10498
lowerneck -17.7084 16.7585 9.75681
upperneck 8.92412 25.9542 -24.1933
head 10.5302 11.1113 -5.21453
rclavicle 9.93923e-016 -1.23246e-014
rhumerus -28.7931 2.61826 -75.534
rradius 62.346
rwrist -20.2384
rhand -14.1774 -19.5171
rfingers 7.12502
rthumb 11.9581 -49.1556
lclavicle 9.93923e-016 -1.23246e-014
lhumerus -29.7393 -9.54401 74.0361
lradius 53.606
lwrist 23.6195
lhand -30.5441 -17.7159
lfingers 7.12502
lthumb -3.84288 12.2292
rfemur -23.9619 -24.8808 15.7091
rtibia 55.2392
rfoot -29.9381 -14.7273
rtoes -4.61423
lfemur -45.4184 25.7876 -24.7452
ltibia 56.7868
lfoot -16.9437 17.1693
ltoes 12.0401
393
root 45.5176 15.5835 5.38886 185.475 11.1764 176.647
lowerback 28.2319 1.99498 -1.13522
upperback 8.6738 4.16479 -2.1107
thorax -5.72834 2.87145 -3.09477
lowerneck -18.1481 17.5116 9.17984
upperneck 9.53349 25.6292 -23.767
head 10.6124 10.1379 -5.17745
rclavicle 6.4605e-014 -3.22031e-014
rhumerus -28.4136 2.73418 -75.9276
rradius 62.7373
rwrist -20.4772
rhand -14.1888 -19.4071
rfingers 7.12502
rthumb 11.947 -49.0462
lclavicle 6.4605e-014 -3.22031e-014
lhumerus -29.4743 -9.96056 74.4472
lradius 53.3049
lwrist 23.5219
lhand -30.3845 -17.9706
lfingers 7.12502
lthumb -3.68875 11.9772
rfemur -23.3474 -25.6316 15.8135
rtibia 55.1078
rfoot -30.2349 -15.1819
rtoes -4.78716
lfemur -45.8111 25.9967 -25.5842
ltibia 56.6576
lfoot -16.0975 17.8735
ltoes 4.99489
394
root 45.508 15.5989 5.28787 185.683 9.44231 177.105
lowerback 28.1679 2.05529 -0.995671
upperback 8.66789 4.32255 -2.1226
thorax -5.6889 2.9644 -3.23459
lowerneck -18.4063 17.4347 9.24156
upperneck 9.5928 25.4827 -23.6192
head 10.6352 10.0751 -5.15441
rclavicle -9.54166e-015 -2.38542e-015
rhumerus -28.0939 2.99064 -76.5967
rradius 63.0295
rwrist -20.5937
rhand -14.4702 -19.3169
rfingers 7.12502
rthumb 11.6757 -48.9716
lclavicle -9.54166e-015 -2.38542e-015
lhumerus -29.2964 -10.1819 74.6
lradius 52.9471
lwrist 23.2371
lhand -29.8504 -18.3782
lfingers 7.12502
lthumb -3.17297 11.578
rfemur -22.4736 -26.3283 16.0277
rtibia 54.801
rfoot -30.7541 -15.5856
rtoes -4.65456
lfemur -45.7431 25.3037 -25.3831
ltibia 56.7304
lfoot -17.0906 17.3415
ltoes 5.21491
395
root 45.4915 15.5925 5.18236 185.957 7.64974 177.358
lowerback 28.0216 2.16037 -1.32451
upperback 8.60698 4.39488 -2.03799
thorax -5.71092 3.00252 -2.97032
lowerneck -18.602 17.4434 9.43682
upperneck 9.65899 25.4769 -23.6879
head 10.7328 10.0586 -5.19103
rclavicle -1.11319e-014 2.06736e-014
rhumerus -27.727 3.44782 -77.1556
rradius 63.1828
rwrist -20.6537
rhand -14.6449 -19.1371
rfingers 7.12502
rthumb 11.5073 -48.8013
lclavicle -1.11319e-014 2.06736e-014
lhumerus -29.2582 -10.0262 74.9773
lradius 52.523
lwrist 22.7715
lhand -29.6334 -17.9211
lfingers 7.12502
lthumb -2.96346 12.038
rfemur -21.776 -27.2488 16.0649
rtibia 54.5905
rfoot -31.022 -16.1854
rtoes -5.22166
lfemur -45.8411 24.703 -25.5291
ltibia 56.8216
lfoot -17.2999 16.403
ltoes 4.61925
396
root 45.4731 15.5701 5.07576 186.513 5.8225 177.425
lowerback 27.611 2.29669 -1.79151
upperback 8.45175 4.43286 -2.02878
thorax -5.71518 3.00948 -2.68435
lowerneck -18.8414 17.4457 9.72577
upperneck 9.83554 25.4748 -23.8133
head 10.9028 10.0283 -5.25725
rclavicle 6.26172e-014 -5.28767e-014
rhumerus -27.4505 4.0026 -77.7728
rradius 63.3646
rwrist -20.827
rhand -13.9767 -18.885
rfingers 7.12502
rthumb 12.1516 -48.5121
lclavicle 6.26172e-014 -5.28767e-014
lhumerus -29.2007 -10.2042 75.4055
lradius 52.1432
lwrist 22.745
lhand -29.8887 -16.8701
lfingers 7.12502
lthumb -3.21002 13.0855
rfemur -21.4894 -28.4038 16.1024
rtibia 54.3842
rfoot -30.9073 -16.9943
rtoes -6.88065
lfemur -46.4621 24.4257 -26.0774
ltibia 57.0755
lfoot -16.8879 14.8687
ltoes 3.16778
397
root 45.4502 15.5688 4.95917 186.79 4.06977 177.917
lowerback 27.5344 2.46437 -1.84013
upperback 8.36389 4.6584 -1.8423
thorax -5.79034 3.11711 -2.5233
lowerneck -19.0437 17.3149 9.64553
upperneck 9.96776 25.3293 -23.8625
head 10.9618 9.92884 -5.28943
rclavicle 5.4467e-014 -2.94201e-014
rhumerus -27.3139 4.68097 -78.1241
rradius 63.6258
rwrist -21.0868
rhand -13.5462 -18.7185
rfingers 7.12502
rthumb 12.5667 -48.3206
lclavicle 5.4467e-014 -2.94201e-014
lhumerus -29.0105 -10.7152 76.0728
lradius 51.6799
lwrist 23.1938
lhand -29.9051 -16.5651
lfingers 7.12502
lthumb -3.2258 13.3903
rfemur -20.7518 -29.2882 16.4465
rtibia 54.1779
rfoot -30.7979 -17.841
rtoes -8.42293
lfemur -46.3108 22.8736 -25.4326
ltibia 57.3072
lfoot -16.9767 14.3547
ltoes 2.10237
